<?xml version="1.0" encoding="utf-8"?>
<!-- Generator: Adobe Illustrator 16.0.0, SVG Export Plug-In . SVG Version: 6.00 Build 0)  -->
<!DOCTYPE svg PUBLIC "-//W3C//DTD SVG 1.1//EN" "http://www.w3.org/Graphics/SVG/1.1/DTD/svg11.dtd">
<svg version="1.1" id="Calque_1" xmlns="http://www.w3.org/2000/svg" xmlns:xlink="http://www.w3.org/1999/xlink" x="0px" y="0px"
	 width="64px" height="64px" viewBox="0 0 64 64" enable-background="new 0 0 64 64" xml:space="preserve">
<path fill="#AAA9A9" d="M64,32c0,17.673-14.328,32-32,32C14.327,64,0,49.673,0,32S14.327,0,32,0C49.672,0,64,14.327,64,32"/>
<path fill="#E0E0D1" d="M48,38c0,1.105-0.895,2-2,2H18c-1.105,0-2-0.895-2-2V16.062c0-1.105,0.895-2,2-2h28c1.105,0,2,0.895,2,2V38z
	"/>
<polygon fill="#FFFFFF" points="14,40 16,37 48,37 50,40 "/>
<g opacity="0.2">
	<g>
		<defs>
			<rect id="SVGID_1_" x="24" y="21" width="16" height="16"/>
		</defs>
		<clipPath id="SVGID_2_">
			<use xlink:href="#SVGID_1_"  overflow="visible"/>
		</clipPath>
		<path clip-path="url(#SVGID_2_)" fill="#231F20" d="M40,29c0,4.418-3.582,8-8,8c-4.418,0-8-3.582-8-8s3.582-8,8-8
			C36.418,21,40,24.582,40,29"/>
	</g>
</g>
<path fill="#666666" d="M32,33.5c-3.584,0-6.5-2.916-6.5-6.5s2.916-6.5,6.5-6.5c3.584,0,6.5,2.916,6.5,6.5S35.584,33.5,32,33.5"/>
<path fill="#4F5D73" d="M32,22c2.756,0,5,2.243,5,5s-2.244,5-5,5c-2.757,0-5-2.243-5-5S29.243,22,32,22 M32,19c-4.418,0-8,3.582-8,8
	s3.582,8,8,8c4.418,0,8-3.582,8-8S36.418,19,32,19"/>
<g opacity="0.2">
	<g>
		<defs>
			<rect id="SVGID_3_" x="18" y="32" width="5" height="5"/>
		</defs>
		<clipPath id="SVGID_4_">
			<use xlink:href="#SVGID_3_"  overflow="visible"/>
		</clipPath>
		<path clip-path="url(#SVGID_4_)" fill="#231F20" d="M23,34.5c0,1.381-1.119,2.5-2.5,2.5S18,35.881,18,34.5s1.119-2.5,2.5-2.5
			S23,33.119,23,34.5"/>
	</g>
</g>
<path fill="#C75C5C" d="M23,32.5c0,1.381-1.119,2.5-2.5,2.5S18,33.881,18,32.5s1.119-2.5,2.5-2.5S23,31.119,23,32.5"/>
<rect x="14" y="40" fill="#E0E0D1" width="36" height="2"/>
<g opacity="0.2">
	<g>
		<defs>
			<rect id="SVGID_5_" x="40" y="16" width="8" height="8"/>
		</defs>
		<clipPath id="SVGID_6_">
			<use xlink:href="#SVGID_5_"  overflow="visible"/>
		</clipPath>
		<path clip-path="url(#SVGID_6_)" fill="#231F20" d="M40,22c0,1.105,0.895,2,2,2h4c1.105,0,2-0.895,2-2v-4c0-1.105-0.895-2-2-2h-4
			c-1.105,0-2,0.895-2,2V22z"/>
	</g>
</g>
<path fill="#4F5D73" d="M40,20c0,1.105,0.895,2,2,2h4c1.105,0,2-0.895,2-2v-4c0-1.105-0.895-2-2-2h-4c-1.105,0-2,0.895-2,2V20z"/>
<g opacity="0.2">
	<g>
		<defs>
			<rect id="SVGID_7_" x="14" y="44" width="36" height="8"/>
		</defs>
		<clipPath id="SVGID_8_">
			<use xlink:href="#SVGID_7_"  overflow="visible"/>
		</clipPath>
		<path clip-path="url(#SVGID_8_)" fill="#231F20" d="M14,46c0,3.314,2.686,6,6,6h24c3.314,0,6-2.686,6-6v-2H14V46z"/>
	</g>
</g>
<path fill="#4F5D73" d="M14,44c0,3.314,2.686,6,6,6h24c3.314,0,6-2.686,6-6v-2H14V44z"/>
<rect x="0" fill="none" width="64" height="64"/>
<rect x="0" fill="none" width="64" height="64"/>
</svg>
