<?xml version="1.0" encoding="utf-8"?>
<!-- Generator: Adobe Illustrator 16.0.0, SVG Export Plug-In . SVG Version: 6.00 Build 0)  -->
<!DOCTYPE svg PUBLIC "-//W3C//DTD SVG 1.1//EN" "http://www.w3.org/Graphics/SVG/1.1/DTD/svg11.dtd">
<svg version="1.1" id="Calque_1" xmlns="http://www.w3.org/2000/svg" xmlns:xlink="http://www.w3.org/1999/xlink" x="0px" y="0px"
	 width="64px" height="64px" viewBox="0 0 64 64" enable-background="new 0 0 64 64" xml:space="preserve">
<path fill="#4F5D73" d="M64,32c0,17.673-14.327,32-32,32S0,49.673,0,32S14.327,0,32,0S64,14.327,64,32"/>
<rect fill="none" width="64" height="64"/>
<rect fill="none" width="64" height="64"/>
<g>
	<defs>
		<circle id="SVGID_1_" cx="32" cy="34.022" r="27.334"/>
	</defs>
	<clipPath id="SVGID_2_">
		<use xlink:href="#SVGID_1_"  overflow="visible"/>
	</clipPath>
	<path opacity="0.2" clip-path="url(#SVGID_2_)" fill="#231F20" d="M53.654,51.962c-4.559-2.279-2.804-0.535-8.399-2.867
		c-5.595-2.328-6.921-3.09-6.921-3.09l-0.045-4.932c2.738-2.217,4.921-5.744,6.121-9.549c1.238-1.58,1.961-3.226,1.961-4.621
		c0-0.955-0.348-1.645-0.955-2.157c-0.203-8.104-5.941-14.613-13.038-14.714c-0.056,0-0.11-0.01-0.165-0.01
		c-0.022,0-0.043,0.004-0.065,0.004c-7.052,0.039-12.782,6.41-13.125,14.408c-0.884,0.529-1.394,1.305-1.394,2.469
		c0,1.642,0.993,3.631,2.663,5.449c1.175,3.291,3.079,6.311,5.427,8.367l-0.052,5.338c0,0-1.326,0.814-6.921,3.145
		c-5.596,2.332-3.841,0.48-8.399,2.76c-7.203,3.602-7.203,13.506-7.203,13.506h28.899h28.815
		C60.857,65.468,60.857,55.563,53.654,51.962z"/>
</g>
<g>
	<defs>
		<circle id="SVGID_3_" cx="32" cy="32" r="27.334"/>
	</defs>
	<clipPath id="SVGID_4_">
		<use xlink:href="#SVGID_3_"  overflow="visible"/>
	</clipPath>
	<path clip-path="url(#SVGID_4_)" fill="#FFFFFF" d="M53.654,49.938c-4.559-2.279-2.804-0.535-8.399-2.866
		c-5.595-2.328-6.921-3.09-6.921-3.09l-0.045-4.933c2.738-2.216,4.921-5.744,6.121-9.548c1.238-1.58,1.961-3.226,1.961-4.621
		c0-0.955-0.348-1.645-0.955-2.158C45.213,14.618,39.475,8.11,32.378,8.01C32.322,8.009,32.268,8,32.213,8
		c-0.022,0-0.043,0.004-0.065,0.004c-7.052,0.039-12.782,6.41-13.125,14.408c-0.884,0.529-1.394,1.305-1.394,2.469
		c0,1.641,0.993,3.63,2.663,5.448c1.175,3.292,3.079,6.312,5.427,8.368l-0.052,5.338c0,0-1.326,0.813-6.921,3.144
		c-5.596,2.332-3.841,0.48-8.399,2.76C3.143,53.54,3.143,63.444,3.143,63.444h28.899h28.815
		C60.857,63.444,60.857,53.54,53.654,49.938z"/>
</g>
</svg>
