<?xml version="1.0" encoding="utf-8"?>
<!-- Generator: Adobe Illustrator 16.0.0, SVG Export Plug-In . SVG Version: 6.00 Build 0)  -->
<!DOCTYPE svg PUBLIC "-//W3C//DTD SVG 1.1//EN" "http://www.w3.org/Graphics/SVG/1.1/DTD/svg11.dtd">
<svg version="1.1" id="Calque_1" xmlns="http://www.w3.org/2000/svg" xmlns:xlink="http://www.w3.org/1999/xlink" x="0px" y="0px"
	 width="64px" height="64px" viewBox="0 0 64 64" enable-background="new 0 0 64 64" xml:space="preserve">
<path fill="#4F5D73" d="M64,32c0,17.674-14.327,32-32,32S0,49.674,0,32C0,14.328,14.327,0,32,0S64,14.328,64,32"/>
<g opacity="0.2">
	<g>
		<defs>
			<rect id="SVGID_1_" x="16" y="14" width="32" height="40"/>
		</defs>
		<clipPath id="SVGID_2_">
			<use xlink:href="#SVGID_1_"  overflow="visible"/>
		</clipPath>
		<path clip-path="url(#SVGID_2_)" fill="#231F20" d="M48,50c0,2.209-1.791,4-4,4H20c-2.209,0-4-1.791-4-4V18c0-2.209,1.791-4,4-4
			h24c2.209,0,4,1.791,4,4V50z"/>
	</g>
</g>
<path fill="#E0E0D1" d="M48,48c0,2.209-1.791,4-4,4H20c-2.209,0-4-1.791-4-4V16c0-2.209,1.791-4,4-4h24c2.209,0,4,1.791,4,4V48z"/>
<g opacity="0.2">
	<g>
		<defs>
			<rect id="SVGID_3_" x="35" y="14" width="8" height="8.5"/>
		</defs>
		<clipPath id="SVGID_4_">
			<use xlink:href="#SVGID_3_"  overflow="visible"/>
		</clipPath>
		<path clip-path="url(#SVGID_4_)" fill="#231F20" d="M35,14v7.846c0,0.264,0.163,0.504,0.411,0.604
			c0.083,0.034,0.17,0.05,0.256,0.05c0.173,0,0.344-0.066,0.471-0.191L39,19.501l2.862,2.808c0.127,0.125,0.298,0.191,0.471,0.191
			c0.086,0,0.173-0.016,0.255-0.05C42.837,22.35,43,22.11,43,21.846V14H35z"/>
	</g>
</g>
<path fill="#C75C5C" d="M35,12v7.846c0,0.264,0.163,0.504,0.411,0.604c0.083,0.034,0.17,0.05,0.256,0.05
	c0.173,0,0.344-0.066,0.471-0.191L39,17.501l2.862,2.808c0.127,0.125,0.298,0.191,0.471,0.191c0.086,0,0.173-0.016,0.255-0.05
	C42.837,20.35,43,20.11,43,19.846V12H35z"/>
<rect x="20" y="12" fill="#FFFFFF" width="3" height="40"/>
</svg>
