<?xml version="1.0" encoding="utf-8"?>
<!-- Generator: Adobe Illustrator 16.0.0, SVG Export Plug-In . SVG Version: 6.00 Build 0)  -->
<!DOCTYPE svg PUBLIC "-//W3C//DTD SVG 1.1//EN" "http://www.w3.org/Graphics/SVG/1.1/DTD/svg11.dtd">
<svg version="1.1" id="Calque_1" xmlns="http://www.w3.org/2000/svg" xmlns:xlink="http://www.w3.org/1999/xlink" x="0px" y="0px"
	 width="64px" height="64px" viewBox="0 0 64 64" enable-background="new 0 0 64 64" xml:space="preserve">
<path fill="#C75C5C" d="M64,32c0,17.673-14.327,32-32,32S0,49.673,0,32S14.327,0,32,0S64,14.327,64,32"/>
<g opacity="0.2">
	<g>
		<defs>
			<rect id="SVGID_1_" x="14" y="20.561" width="36" height="30.879"/>
		</defs>
		<clipPath id="SVGID_2_">
			<use xlink:href="#SVGID_1_"  overflow="visible"/>
		</clipPath>
		<path clip-path="url(#SVGID_2_)" fill="#231F20" d="M49.982,31.003c-0.095-5.521-4.574-10.442-10.107-10.442
			c-3.199,0-6.019,1.674-7.875,4.131c-1.856-2.457-4.676-4.131-7.875-4.131c-5.533,0-10.013,4.922-10.106,10.442H14
			c0,0.034,0.007,0.065,0.007,0.099c0,0.025-0.007,0.049-0.007,0.077c0,0.155,0.038,0.272,0.045,0.42
			c0.495,14.072,17.813,19.841,17.813,19.841s17.572-5.763,18.093-19.818C49.96,31.464,50,31.34,50,31.179
			c0-0.028-0.007-0.052-0.007-0.077c0-0.035,0.007-0.064,0.007-0.099H49.982z"/>
	</g>
</g>
<path fill="#E0E0D1" d="M49.982,29.003c-0.095-5.521-4.574-10.442-10.107-10.442c-3.199,0-6.019,1.674-7.875,4.131
	c-1.856-2.457-4.676-4.131-7.875-4.131c-5.533,0-10.013,4.922-10.106,10.442H14c0,0.034,0.007,0.065,0.007,0.099
	c0,0.025-0.007,0.049-0.007,0.077c0,0.155,0.038,0.272,0.045,0.42c0.495,14.072,17.813,19.841,17.813,19.841
	s17.572-5.763,18.093-19.818C49.96,29.464,50,29.34,50,29.179c0-0.028-0.007-0.052-0.007-0.077c0-0.035,0.007-0.064,0.007-0.099
	H49.982z"/>
<rect fill="none" width="64" height="64"/>
<rect fill="none" width="64" height="64"/>
</svg>
